<svg width="199" height="103" viewBox="0 0 199 103" fill="none" xmlns="http://www.w3.org/2000/svg">
<g filter="url(#filter0_bd_90_34)">
<path d="M4 20C4 8.9543 12.9543 0 24 0H175C186.046 0 195 8.95431 195 20V75C195 86.0457 186.046 95 175 95H24C12.9543 95 4 86.0457 4 75V20Z" fill="#478D92" fill-opacity="0.6" shape-rendering="crispEdges"/>
<path d="M42 23H156V18H42V23ZM42 51H156V46H42V51ZM42 75H156V70H42V75ZM24 2.5H175C184.665 2.5 192.5 10.335 192.5 20V75C192.5 84.665 184.665 92.5 175 92.5H24C14.335 92.5 6.5 84.665 6.5 75V20C6.5 10.335 14.335 2.5 24 2.5Z" stroke="white" stroke-width="5" shape-rendering="crispEdges"/>
</g>
<defs>
<filter id="filter0_bd_90_34" x="-46" y="-50" width="291" height="195" filterUnits="userSpaceOnUse" color-interpolation-filters="sRGB">
<feFlood flood-opacity="0" result="BackgroundImageFix"/>
<feGaussianBlur in="BackgroundImage" stdDeviation="25"/>
<feComposite in2="SourceAlpha" operator="in" result="effect1_backgroundBlur_90_34"/>
<feColorMatrix in="SourceAlpha" type="matrix" values="0 0 0 0 0 0 0 0 0 0 0 0 0 0 0 0 0 0 127 0" result="hardAlpha"/>
<feOffset dy="4"/>
<feGaussianBlur stdDeviation="2"/>
<feComposite in2="hardAlpha" operator="out"/>
<feColorMatrix type="matrix" values="0 0 0 0 0 0 0 0 0 0 0 0 0 0 0 0 0 0 0.25 0"/>
<feBlend mode="normal" in2="effect1_backgroundBlur_90_34" result="effect2_dropShadow_90_34"/>
<feBlend mode="normal" in="SourceGraphic" in2="effect2_dropShadow_90_34" result="shape"/>
</filter>
</defs>
</svg>
